<svg xmlns="http://www.w3.org/2000/svg" xmlns:xlink="http://www.w3.org/1999/xlink" width="500" zoomAndPan="magnify" viewBox="0 0 375 374.999991" height="500" preserveAspectRatio="xMidYMid meet" version="1.0"><defs><g/></defs><g fill="#000000" fill-opacity="1"><g transform="translate(49.305719, 198.726259)"><g><path d="M 58.171875 -69.140625 C 59.960938 -67.410156 61.222656 -65.25 61.953125 -62.65625 C 62.691406 -60.0625 62.363281 -57.601562 60.96875 -55.28125 C 60.894531 -55.207031 60.773438 -55.1875 60.609375 -55.21875 C 60.453125 -55.257812 60.40625 -55.347656 60.46875 -55.484375 C 60.726562 -56.078125 60.925781 -56.65625 61.0625 -57.21875 C 61.195312 -57.789062 61.265625 -58.410156 61.265625 -59.078125 C 61.265625 -61.460938 60.515625 -63.769531 59.015625 -66 C 57.523438 -68.226562 55.613281 -69.710938 53.28125 -70.453125 C 51.613281 -70.984375 49.929688 -71.097656 48.234375 -70.796875 C 46.546875 -70.492188 44.867188 -70.144531 43.203125 -69.75 C 40.472656 -69.082031 37.742188 -68.179688 35.015625 -67.046875 C 29.960938 -64.921875 25.359375 -62.007812 21.203125 -58.3125 C 17.046875 -54.625 13.503906 -50.488281 10.578125 -45.90625 C 7.648438 -41.3125 5.335938 -36.351562 3.640625 -31.03125 C 1.941406 -25.707031 1.359375 -20.285156 1.890625 -14.765625 C 2.085938 -12.171875 2.632812 -9.609375 3.53125 -7.078125 C 4.4375 -4.554688 5.65625 -2.226562 7.1875 -0.09375 C 8.976562 2.164062 11.117188 4.039062 13.609375 5.53125 C 16.109375 7.03125 18.789062 8.046875 21.65625 8.578125 C 25.78125 9.378906 29.800781 9.28125 33.71875 8.28125 C 37.644531 7.28125 41.320312 5.632812 44.75 3.34375 C 48.175781 1.050781 51.21875 -1.59375 53.875 -4.59375 C 54.007812 -4.726562 54.191406 -4.710938 54.421875 -4.546875 C 54.660156 -4.378906 54.710938 -4.226562 54.578125 -4.09375 C 54.109375 -3.425781 53.609375 -2.789062 53.078125 -2.1875 C 52.546875 -1.59375 52.015625 -1 51.484375 -0.40625 C 48.628906 2.65625 45.285156 5.164062 41.453125 7.125 C 37.628906 9.09375 33.585938 10.273438 29.328125 10.671875 C 25.078125 11.078125 20.890625 10.515625 16.765625 8.984375 C 14.035156 7.847656 11.539062 6.316406 9.28125 4.390625 C 7.019531 2.460938 5.125 0.164062 3.59375 -2.5 C 1 -7.488281 -0.195312 -12.941406 0 -18.859375 C 0.0625 -24.648438 1.222656 -30.304688 3.484375 -35.828125 C 5.753906 -41.347656 8.617188 -46.398438 12.078125 -50.984375 C 15.597656 -55.640625 19.753906 -59.664062 24.546875 -63.0625 C 29.335938 -66.457031 34.5625 -68.953125 40.21875 -70.546875 C 41.945312 -71.078125 43.707031 -71.539062 45.5 -71.9375 C 47.289062 -72.34375 49.085938 -72.476562 50.890625 -72.34375 C 52.285156 -72.269531 53.597656 -71.953125 54.828125 -71.390625 C 56.054688 -70.828125 57.171875 -70.078125 58.171875 -69.140625 Z M 58.171875 -69.140625 "/></g></g></g><g fill="#000000" fill-opacity="1"><g transform="translate(114.361757, 198.726259)"><g><path d="M 22.65625 -18.5625 C 22.851562 -18.625 23 -18.570312 23.09375 -18.40625 C 23.195312 -18.238281 23.179688 -18.085938 23.046875 -17.953125 C 22.515625 -17.421875 21.914062 -16.9375 21.25 -16.5 C 20.582031 -16.070312 19.914062 -15.660156 19.25 -15.265625 C 18.65625 -14.867188 18.039062 -14.519531 17.40625 -14.21875 C 16.78125 -13.914062 16.097656 -13.597656 15.359375 -13.265625 C 12.835938 -12.140625 10.144531 -11.410156 7.28125 -11.078125 C 5.75 -10.878906 4.066406 -10.8125 2.234375 -10.875 C 0.410156 -10.9375 -1.128906 -11.503906 -2.390625 -12.578125 C -3.054688 -13.109375 -3.503906 -13.804688 -3.734375 -14.671875 C -3.972656 -15.535156 -3.992188 -16.363281 -3.796875 -17.15625 C -3.460938 -18.289062 -2.84375 -19.273438 -1.9375 -20.109375 C -1.039062 -20.941406 -0.128906 -21.65625 0.796875 -22.25 C 1.929688 -22.914062 3.144531 -23.460938 4.4375 -23.890625 C 5.738281 -24.328125 7.019531 -24.410156 8.28125 -24.140625 C 9.613281 -23.878906 10.226562 -23.195312 10.125 -22.09375 C 10.03125 -21 9.613281 -20.085938 8.875 -19.359375 C 7.34375 -17.890625 5.445312 -17.054688 3.1875 -16.859375 C 1.457031 -16.660156 -0.234375 -17.023438 -1.890625 -17.953125 C -2.222656 -17.359375 -2.421875 -16.710938 -2.484375 -16.015625 C -2.554688 -15.316406 -2.359375 -14.664062 -1.890625 -14.0625 C -1.492188 -13.601562 -0.992188 -13.253906 -0.390625 -13.015625 C 0.203125 -12.785156 0.796875 -12.601562 1.390625 -12.46875 C 2.921875 -12.207031 4.535156 -12.160156 6.234375 -12.328125 C 7.929688 -12.492188 9.507812 -12.773438 10.96875 -13.171875 C 12.832031 -13.765625 14.796875 -14.53125 16.859375 -15.46875 C 17.796875 -16 18.742188 -16.546875 19.703125 -17.109375 C 20.671875 -17.671875 21.65625 -18.15625 22.65625 -18.5625 Z M 3.5 -21.953125 C 2.625 -21.554688 1.738281 -21.070312 0.84375 -20.5 C -0.0507812 -19.9375 -0.832031 -19.253906 -1.5 -18.453125 C -1.5 -18.453125 -1.515625 -18.4375 -1.546875 -18.40625 C -1.578125 -18.375 -1.59375 -18.359375 -1.59375 -18.359375 C 0.0625 -17.765625 1.789062 -17.664062 3.59375 -18.0625 C 4.519531 -18.195312 5.484375 -18.546875 6.484375 -19.109375 C 7.484375 -19.671875 8.179688 -20.382812 8.578125 -21.25 C 8.710938 -21.519531 8.78125 -21.785156 8.78125 -22.046875 C 8.78125 -22.316406 8.613281 -22.484375 8.28125 -22.546875 C 8.007812 -22.679688 7.738281 -22.75 7.46875 -22.75 C 7.207031 -22.75 6.910156 -22.75 6.578125 -22.75 C 6.117188 -22.75 5.625 -22.664062 5.09375 -22.5 C 4.5625 -22.332031 4.03125 -22.148438 3.5 -21.953125 Z M 3.5 -21.953125 "/></g></g></g><g fill="#000000" fill-opacity="1"><g transform="translate(139.506104, 198.726259)"><g><path d="M 22.65625 -18.5625 C 22.851562 -18.625 23 -18.570312 23.09375 -18.40625 C 23.195312 -18.238281 23.179688 -18.085938 23.046875 -17.953125 C 22.515625 -17.421875 21.914062 -16.9375 21.25 -16.5 C 20.582031 -16.070312 19.914062 -15.660156 19.25 -15.265625 C 18.65625 -14.867188 18.039062 -14.519531 17.40625 -14.21875 C 16.78125 -13.914062 16.097656 -13.597656 15.359375 -13.265625 C 12.835938 -12.140625 10.144531 -11.410156 7.28125 -11.078125 C 5.75 -10.878906 4.066406 -10.8125 2.234375 -10.875 C 0.410156 -10.9375 -1.128906 -11.503906 -2.390625 -12.578125 C -3.054688 -13.109375 -3.503906 -13.804688 -3.734375 -14.671875 C -3.972656 -15.535156 -3.992188 -16.363281 -3.796875 -17.15625 C -3.460938 -18.289062 -2.84375 -19.273438 -1.9375 -20.109375 C -1.039062 -20.941406 -0.128906 -21.65625 0.796875 -22.25 C 1.929688 -22.914062 3.144531 -23.460938 4.4375 -23.890625 C 5.738281 -24.328125 7.019531 -24.410156 8.28125 -24.140625 C 9.613281 -23.878906 10.226562 -23.195312 10.125 -22.09375 C 10.03125 -21 9.613281 -20.085938 8.875 -19.359375 C 7.34375 -17.890625 5.445312 -17.054688 3.1875 -16.859375 C 1.457031 -16.660156 -0.234375 -17.023438 -1.890625 -17.953125 C -2.222656 -17.359375 -2.421875 -16.710938 -2.484375 -16.015625 C -2.554688 -15.316406 -2.359375 -14.664062 -1.890625 -14.0625 C -1.492188 -13.601562 -0.992188 -13.253906 -0.390625 -13.015625 C 0.203125 -12.785156 0.796875 -12.601562 1.390625 -12.46875 C 2.921875 -12.207031 4.535156 -12.160156 6.234375 -12.328125 C 7.929688 -12.492188 9.507812 -12.773438 10.96875 -13.171875 C 12.832031 -13.765625 14.796875 -14.53125 16.859375 -15.46875 C 17.796875 -16 18.742188 -16.546875 19.703125 -17.109375 C 20.671875 -17.671875 21.65625 -18.15625 22.65625 -18.5625 Z M 3.5 -21.953125 C 2.625 -21.554688 1.738281 -21.070312 0.84375 -20.5 C -0.0507812 -19.9375 -0.832031 -19.253906 -1.5 -18.453125 C -1.5 -18.453125 -1.515625 -18.4375 -1.546875 -18.40625 C -1.578125 -18.375 -1.59375 -18.359375 -1.59375 -18.359375 C 0.0625 -17.765625 1.789062 -17.664062 3.59375 -18.0625 C 4.519531 -18.195312 5.484375 -18.546875 6.484375 -19.109375 C 7.484375 -19.671875 8.179688 -20.382812 8.578125 -21.25 C 8.710938 -21.519531 8.78125 -21.785156 8.78125 -22.046875 C 8.78125 -22.316406 8.613281 -22.484375 8.28125 -22.546875 C 8.007812 -22.679688 7.738281 -22.75 7.46875 -22.75 C 7.207031 -22.75 6.910156 -22.75 6.578125 -22.75 C 6.117188 -22.75 5.625 -22.664062 5.09375 -22.5 C 4.5625 -22.332031 4.03125 -22.148438 3.5 -21.953125 Z M 3.5 -21.953125 "/></g></g></g><g fill="#000000" fill-opacity="1"><g transform="translate(164.650451, 198.726259)"><g><path d="M 95.796875 -49 C 95.992188 -45.53125 95.757812 -42.097656 95.09375 -38.703125 C 94.425781 -35.316406 93.460938 -32.0625 92.203125 -28.9375 C 91.003906 -25.8125 89.585938 -22.785156 87.953125 -19.859375 C 86.328125 -16.929688 84.515625 -14.101562 82.515625 -11.375 C 80.585938 -8.71875 78.492188 -6.171875 76.234375 -3.734375 C 73.972656 -1.304688 71.507812 0.898438 68.84375 2.890625 C 66.382812 4.753906 63.707031 6.234375 60.8125 7.328125 C 57.914062 8.429688 54.90625 8.75 51.78125 8.28125 C 50.457031 8.082031 49.144531 7.71875 47.84375 7.1875 C 46.550781 6.65625 45.335938 5.957031 44.203125 5.09375 C 43.140625 4.15625 42.222656 3.054688 41.453125 1.796875 C 40.691406 0.535156 40.113281 -0.789062 39.71875 -2.1875 C 39.3125 -3.71875 39.054688 -5.234375 38.953125 -6.734375 C 38.859375 -8.234375 38.847656 -9.75 38.921875 -11.28125 C 38.984375 -13.007812 39.128906 -14.71875 39.359375 -16.40625 C 39.597656 -18.101562 39.847656 -19.785156 40.109375 -21.453125 C 40.378906 -22.585938 40.644531 -23.71875 40.90625 -24.84375 C 41.175781 -25.976562 41.476562 -27.109375 41.8125 -28.234375 C 40.28125 -25.773438 38.628906 -23.347656 36.859375 -20.953125 C 35.097656 -18.554688 33.253906 -16.257812 31.328125 -14.0625 C 29.796875 -12.40625 28.195312 -10.742188 26.53125 -9.078125 C 24.875 -7.410156 23.179688 -5.816406 21.453125 -4.296875 C 19.722656 -2.828125 17.894531 -1.410156 15.96875 -0.046875 C 14.039062 1.316406 11.941406 2.265625 9.671875 2.796875 C 7.679688 3.265625 5.738281 3.210938 3.84375 2.640625 C 1.945312 2.078125 0.367188 0.960938 -0.890625 -0.703125 C -2.023438 -2.234375 -2.820312 -3.960938 -3.28125 -5.890625 C -3.75 -7.816406 -3.953125 -9.710938 -3.890625 -11.578125 C -3.828125 -16.296875 -2.945312 -20.847656 -1.25 -25.234375 C 0.445312 -29.628906 2.523438 -33.789062 4.984375 -37.71875 C 6.253906 -39.78125 7.566406 -41.804688 8.921875 -43.796875 C 10.285156 -45.796875 11.671875 -47.726562 13.078125 -49.59375 C 14.734375 -51.789062 16.375 -53.984375 18 -56.171875 C 19.632812 -58.367188 21.285156 -60.53125 22.953125 -62.65625 C 23.015625 -62.789062 23.113281 -62.789062 23.25 -62.65625 C 23.382812 -62.53125 23.414062 -62.398438 23.34375 -62.265625 C 23.007812 -61.796875 22.644531 -61.28125 22.25 -60.71875 C 21.851562 -60.15625 21.488281 -59.609375 21.15625 -59.078125 C 18.363281 -55.148438 15.535156 -51.222656 12.671875 -47.296875 C 9.804688 -43.367188 7.179688 -39.273438 4.796875 -35.015625 C 2.597656 -31.296875 0.75 -27.273438 -0.75 -22.953125 C -2.25 -18.628906 -2.863281 -14.238281 -2.59375 -9.78125 C -2.457031 -8.050781 -2.085938 -6.269531 -1.484375 -4.4375 C -0.890625 -2.613281 0.132812 -1.132812 1.59375 0 C 3.320312 1.457031 5.265625 2.035156 7.421875 1.734375 C 9.585938 1.441406 11.601562 0.796875 13.46875 -0.203125 C 15.46875 -1.265625 17.332031 -2.539062 19.0625 -4.03125 C 20.789062 -5.53125 22.453125 -7.046875 24.046875 -8.578125 C 25.710938 -10.109375 27.289062 -11.703125 28.78125 -13.359375 C 30.28125 -15.023438 31.726562 -16.691406 33.125 -18.359375 C 37.582031 -23.878906 41.472656 -29.832031 44.796875 -36.21875 C 45.128906 -37.082031 45.492188 -37.910156 45.890625 -38.703125 C 46.296875 -39.503906 46.695312 -40.304688 47.09375 -41.109375 C 47.363281 -41.503906 47.679688 -41.585938 48.046875 -41.359375 C 48.410156 -41.128906 48.492188 -40.8125 48.296875 -40.40625 C 48.023438 -39.875 47.773438 -39.34375 47.546875 -38.8125 C 47.316406 -38.28125 47.066406 -37.75 46.796875 -37.21875 C 46.523438 -36.550781 46.191406 -35.882812 45.796875 -35.21875 C 44.535156 -32.289062 43.472656 -29.265625 42.609375 -26.140625 C 41.742188 -23.015625 41.109375 -19.851562 40.703125 -16.65625 C 40.378906 -13.800781 40.234375 -10.789062 40.265625 -7.625 C 40.296875 -4.46875 41.078125 -1.59375 42.609375 1 C 44.066406 3.457031 46.144531 5.148438 48.84375 6.078125 C 51.539062 7.015625 54.25 7.285156 56.96875 6.890625 C 60.03125 6.359375 62.859375 5.207031 65.453125 3.4375 C 68.046875 1.675781 70.441406 -0.234375 72.640625 -2.296875 C 77.234375 -6.679688 81.304688 -11.664062 84.859375 -17.25 C 88.421875 -22.84375 91.035156 -28.734375 92.703125 -34.921875 C 93.566406 -38.046875 94.128906 -41.253906 94.390625 -44.546875 C 94.660156 -47.835938 94.425781 -51.082031 93.6875 -54.28125 C 92.5 -59.664062 90.007812 -64.457031 86.21875 -68.65625 C 84.476562 -70.644531 82.507812 -72.453125 80.3125 -74.078125 C 78.125 -75.710938 75.863281 -77.160156 73.53125 -78.421875 C 72.269531 -79.085938 71.003906 -79.671875 69.734375 -80.171875 C 68.472656 -80.671875 67.179688 -81.15625 65.859375 -81.625 C 64.585938 -82.082031 63.300781 -82.492188 62 -82.859375 C 60.707031 -83.234375 59.398438 -83.519531 58.078125 -83.71875 C 57.804688 -83.78125 57.703125 -83.941406 57.765625 -84.203125 C 57.835938 -84.472656 58.003906 -84.578125 58.265625 -84.515625 C 59.003906 -84.453125 59.703125 -84.367188 60.359375 -84.265625 C 61.023438 -84.160156 61.691406 -84.046875 62.359375 -83.921875 C 67.816406 -82.648438 73.019531 -80.519531 77.96875 -77.53125 C 82.925781 -74.539062 87.003906 -70.679688 90.203125 -65.953125 C 93.597656 -60.898438 95.460938 -55.25 95.796875 -49 Z M 95.796875 -49 "/></g></g></g><g fill="#000000" fill-opacity="1"><g transform="translate(261.536051, 198.726259)"><g><path d="M 37.3125 -17.65625 C 37.644531 -17.789062 37.859375 -17.722656 37.953125 -17.453125 C 38.054688 -17.191406 37.976562 -16.960938 37.71875 -16.765625 C 37.113281 -16.367188 36.460938 -16.003906 35.765625 -15.671875 C 35.066406 -15.335938 34.351562 -15.003906 33.625 -14.671875 C 32.957031 -14.398438 32.304688 -14.113281 31.671875 -13.8125 C 31.046875 -13.519531 30.398438 -13.238281 29.734375 -12.96875 C 28.472656 -12.5 27.222656 -12.097656 25.984375 -11.765625 C 24.753906 -11.441406 23.476562 -11.210938 22.15625 -11.078125 C 21.09375 -10.941406 19.941406 -10.875 18.703125 -10.875 C 17.472656 -10.875 16.328125 -11.109375 15.265625 -11.578125 C 14.128906 -12.109375 13.476562 -12.890625 13.3125 -13.921875 C 13.15625 -14.953125 13.304688 -16 13.765625 -17.0625 C 13.035156 -16.46875 12.285156 -15.898438 11.515625 -15.359375 C 10.753906 -14.828125 9.976562 -14.296875 9.1875 -13.765625 C 7.582031 -12.898438 6.015625 -12.238281 4.484375 -11.78125 C 3.691406 -11.570312 2.863281 -11.382812 2 -11.21875 C 1.132812 -11.050781 0.269531 -11.070312 -0.59375 -11.28125 C -1.863281 -11.613281 -2.597656 -12.226562 -2.796875 -13.125 C -2.992188 -14.019531 -2.875 -14.984375 -2.4375 -16.015625 C -2.007812 -17.046875 -1.492188 -17.894531 -0.890625 -18.5625 C 1.296875 -20.757812 3.851562 -22.1875 6.78125 -22.84375 C 8.3125 -23.175781 9.941406 -23.34375 11.671875 -23.34375 C 13.398438 -23.34375 14.695312 -22.546875 15.5625 -20.953125 C 15.5625 -20.890625 15.5625 -20.835938 15.5625 -20.796875 C 15.5625 -20.765625 15.5625 -20.71875 15.5625 -20.65625 C 15.832031 -20.914062 16.113281 -21.160156 16.40625 -21.390625 C 16.707031 -21.628906 16.992188 -21.882812 17.265625 -22.15625 C 17.328125 -22.21875 17.375 -22.265625 17.40625 -22.296875 C 17.445312 -22.328125 17.46875 -22.34375 17.46875 -22.34375 C 17.863281 -22.675781 18.226562 -22.675781 18.5625 -22.34375 C 18.894531 -22.019531 18.894531 -21.691406 18.5625 -21.359375 C 18.488281 -21.148438 18.351562 -21.015625 18.15625 -20.953125 C 17.289062 -20.222656 16.523438 -19.289062 15.859375 -18.15625 C 15.203125 -17.03125 14.835938 -15.898438 14.765625 -14.765625 C 14.765625 -13.835938 15.144531 -13.207031 15.90625 -12.875 C 16.675781 -12.539062 17.539062 -12.390625 18.5 -12.421875 C 19.46875 -12.453125 20.253906 -12.503906 20.859375 -12.578125 C 22.316406 -12.703125 23.742188 -12.945312 25.140625 -13.3125 C 26.535156 -13.6875 27.898438 -14.101562 29.234375 -14.5625 C 29.960938 -14.832031 30.660156 -15.097656 31.328125 -15.359375 C 31.992188 -15.628906 32.660156 -15.898438 33.328125 -16.171875 C 33.992188 -16.429688 34.660156 -16.710938 35.328125 -17.015625 C 35.992188 -17.316406 36.65625 -17.53125 37.3125 -17.65625 Z M 2.796875 -12.875 C 5.316406 -13.40625 7.578125 -14.398438 9.578125 -15.859375 C 11.578125 -17.328125 13.503906 -18.894531 15.359375 -20.5625 C 15.234375 -20.425781 15.132812 -20.457031 15.0625 -20.65625 C 14.53125 -21.382812 13.847656 -21.847656 13.015625 -22.046875 C 12.191406 -22.242188 11.378906 -22.3125 10.578125 -22.25 C 9.710938 -22.1875 8.863281 -22.070312 8.03125 -21.90625 C 7.195312 -21.738281 6.414062 -21.519531 5.6875 -21.25 C 4.550781 -20.851562 3.4375 -20.285156 2.34375 -19.546875 C 1.25 -18.816406 0.332031 -17.957031 -0.40625 -16.96875 C -0.726562 -16.5 -1.054688 -15.894531 -1.390625 -15.15625 C -1.722656 -14.425781 -1.691406 -13.796875 -1.296875 -13.265625 C -0.898438 -12.671875 -0.269531 -12.421875 0.59375 -12.515625 C 1.457031 -12.617188 2.191406 -12.738281 2.796875 -12.875 Z M 2.796875 -12.875 "/></g></g></g><g fill="#000000" fill-opacity="1"><g transform="translate(302.046406, 198.726259)"><g><path d="M 23.15625 -21.046875 C 23.28125 -21.117188 23.390625 -21.101562 23.484375 -21 C 23.585938 -20.90625 23.609375 -20.789062 23.546875 -20.65625 C 23.210938 -19.988281 22.726562 -19.335938 22.09375 -18.703125 C 21.46875 -18.078125 20.890625 -17.5 20.359375 -16.96875 C 19.753906 -16.4375 19.117188 -15.9375 18.453125 -15.46875 C 17.796875 -15 17.097656 -14.566406 16.359375 -14.171875 C 14.234375 -12.835938 11.804688 -11.90625 9.078125 -11.375 C 7.816406 -11.175781 6.535156 -11.09375 5.234375 -11.125 C 3.941406 -11.15625 2.695312 -11.40625 1.5 -11.875 C 0.226562 -12.40625 -0.703125 -13.285156 -1.296875 -14.515625 C -1.890625 -15.742188 -2.085938 -17.054688 -1.890625 -18.453125 C -1.628906 -19.785156 -1.097656 -21.1875 -0.296875 -22.65625 C 0.0976562 -23.25 0.53125 -23.878906 1 -24.546875 C 1.46875 -25.210938 1.96875 -25.78125 2.5 -26.25 C 2.625 -26.3125 2.71875 -26.304688 2.78125 -26.234375 C 2.851562 -26.171875 2.859375 -26.109375 2.796875 -26.046875 C 2.128906 -24.710938 1.410156 -23.3125 0.640625 -21.84375 C -0.117188 -20.382812 -0.46875 -18.890625 -0.40625 -17.359375 C -0.332031 -15.492188 0.382812 -14.226562 1.75 -13.5625 C 3.113281 -12.90625 4.675781 -12.609375 6.4375 -12.671875 C 8.195312 -12.734375 9.707031 -12.929688 10.96875 -13.265625 C 12.101562 -13.597656 13.1875 -14.015625 14.21875 -14.515625 C 15.25 -15.015625 16.265625 -15.597656 17.265625 -16.265625 C 17.796875 -16.597656 18.3125 -16.960938 18.8125 -17.359375 C 19.3125 -17.753906 19.789062 -18.15625 20.25 -18.5625 C 20.78125 -18.894531 21.28125 -19.3125 21.75 -19.8125 C 22.21875 -20.3125 22.6875 -20.722656 23.15625 -21.046875 Z M 4.890625 -29.234375 C 4.222656 -29.097656 3.820312 -29.332031 3.6875 -29.9375 C 3.488281 -30.332031 3.625 -30.765625 4.09375 -31.234375 C 4.226562 -31.367188 4.359375 -31.484375 4.484375 -31.578125 C 4.617188 -31.679688 4.753906 -31.734375 4.890625 -31.734375 C 5.023438 -31.796875 5.207031 -31.828125 5.4375 -31.828125 C 5.664062 -31.828125 5.847656 -31.757812 5.984375 -31.625 C 6.453125 -31.226562 6.519531 -30.734375 6.1875 -30.140625 C 6.050781 -29.929688 5.863281 -29.726562 5.625 -29.53125 C 5.394531 -29.332031 5.148438 -29.234375 4.890625 -29.234375 Z M 4.890625 -29.234375 "/></g></g></g></svg>