<svg xmlns="http://www.w3.org/2000/svg" xmlns:xlink="http://www.w3.org/1999/xlink" width="500" zoomAndPan="magnify" viewBox="0 0 375 374.999991" height="500" preserveAspectRatio="xMidYMid meet" version="1.0"><defs><g/><clipPath id="bbdd59a132"><path d="M 187.5 31.707031 L 255.136719 31.707031 L 255.136719 39.242188 L 187.5 39.242188 Z M 187.5 31.707031 " clip-rule="nonzero"/></clipPath><clipPath id="21b60aeff7"><path d="M 247.605469 31.699219 L 255.136719 31.699219 L 255.136719 99.335938 L 247.605469 99.335938 Z M 247.605469 31.699219 " clip-rule="nonzero"/></clipPath><clipPath id="f11c5b49ab"><path d="M 119.859375 325.53125 L 187.492188 325.53125 L 187.492188 333.066406 L 119.859375 333.066406 Z M 119.859375 325.53125 " clip-rule="nonzero"/></clipPath><clipPath id="35c3babe11"><path d="M 119.855469 265.441406 L 127.390625 265.441406 L 127.390625 333.074219 L 119.855469 333.074219 Z M 119.855469 265.441406 " clip-rule="nonzero"/></clipPath></defs><g fill="#000000" fill-opacity="1"><g transform="translate(128.19423, 143.857454)"><g><path d="M 53.015625 -76.625 L 103.421875 -76.625 L 103.421875 -64.640625 L 112.078125 -64.640625 L 112.078125 -84.328125 L 84.453125 -84.328125 C 83.03125 -88.71875 80.296875 -94.765625 77.921875 -99.390625 L 69.75 -97.265625 C 71.640625 -93.34375 73.65625 -88.359375 75.203125 -84.328125 L 44.59375 -84.328125 L 44.59375 -64.640625 L 53.015625 -64.640625 Z M 102.953125 -55.859375 L 102.953125 -63.6875 L 53.140625 -63.6875 L 53.140625 -55.859375 Z M 43.0625 -22.765625 L 28.34375 -18.5 L 28.34375 -48.984375 L 41.03125 -48.984375 L 41.03125 -57.171875 L 28.34375 -57.171875 L 28.34375 -82.90625 L 42.8125 -82.90625 L 42.703125 -91.203125 L 5.9375 -91.203125 L 5.9375 -82.90625 L 20.046875 -82.90625 L 20.046875 -57.171875 L 6.875 -57.171875 L 6.875 -48.984375 L 20.046875 -48.984375 L 20.046875 -16.015625 C 14.59375 -14.46875 9.609375 -13.171875 5.453125 -12.09375 L 7.359375 -3.5625 C 17.671875 -6.765625 31.3125 -10.796875 44.234375 -14.703125 Z M 55.75 -26.453125 C 51.359375 -18.265625 44.484375 -9.140625 38.1875 -2.96875 C 40.203125 -1.890625 43.53125 0.71875 45.1875 2.25 C 51.359375 -4.5 58.71875 -14.703125 63.8125 -23.953125 Z M 112.4375 -34.390625 L 112.4375 -42.21875 L 45.1875 -42.21875 L 45.1875 -34.390625 L 74.25 -34.390625 L 74.25 -1.0625 C 74.25 0.234375 73.78125 0.59375 72.234375 0.71875 C 70.921875 0.71875 66.0625 0.71875 60.84375 0.59375 C 61.796875 2.84375 62.984375 6.171875 63.453125 8.546875 C 70.921875 8.546875 75.671875 8.421875 78.875 7.109375 C 82.078125 5.8125 82.90625 3.5625 82.90625 -0.953125 L 82.90625 -34.390625 Z M 90.625 -23.484375 C 96.3125 -15.78125 102.828125 -5.34375 105.6875 1.0625 L 113.265625 -2.84375 C 110.3125 -9.140625 103.421875 -19.328125 97.734375 -26.6875 Z M 90.625 -23.484375 "/></g></g></g><g fill="#000000" fill-opacity="1"><g transform="translate(128.19423, 308.447005)"><g><path d="M 94.40625 -85.984375 C 87.171875 -90.5 73.1875 -96.1875 62.5 -99.28125 L 58.59375 -92.28125 C 69.5 -88.84375 83.375 -82.796875 90.140625 -78.046875 Z M 31.546875 -84.453125 C 29.890625 -88.59375 25.96875 -94.765625 22.65625 -99.625 L 16.015625 -96.1875 C 19.21875 -91.328125 22.890625 -84.6875 24.671875 -80.421875 Z M 44.234375 -79.109375 L 6.28125 -79.109375 L 6.28125 -71.875 L 44.234375 -71.875 Z M 33.453125 -25.03125 L 33.453125 -5.453125 L 18.03125 -5.453125 L 18.03125 -25.03125 Z M 41.03125 -32.375 L 10.5625 -32.375 L 10.5625 7.46875 L 18.03125 7.46875 L 18.03125 1.890625 L 41.03125 1.890625 Z M 10.5625 -41.15625 L 41.03125 -41.15625 L 41.03125 -48.15625 L 10.5625 -48.15625 Z M 10.5625 -56.578125 L 41.15625 -56.578125 L 41.15625 -63.578125 L 10.5625 -63.578125 Z M 64.53125 -53.609375 L 62.984375 -53.25 L 43.765625 -53.25 L 43.765625 -45.1875 L 60.25 -45.1875 C 56.6875 -29.765625 49.453125 -15.53125 41.28125 -8.65625 C 43.171875 -7.234375 45.671875 -4.15625 46.96875 -2.375 C 57.765625 -11.859375 66.296875 -30.015625 69.859375 -51.71875 Z M 105.09375 -65.703125 C 101.296875 -59.890625 95.25 -52.0625 89.78125 -46.015625 C 87.53125 -51.828125 85.640625 -57.875 84.09375 -63.8125 L 84.09375 -74.71875 L 52.1875 -74.71875 L 52.1875 -66.65625 L 75.671875 -66.65625 L 75.671875 -1.421875 C 75.671875 0.234375 75.078125 0.71875 73.296875 0.828125 C 71.765625 0.828125 65.953125 0.953125 59.78125 0.59375 C 60.96875 2.96875 62.15625 6.765625 62.5 9.140625 C 71.046875 9.140625 76.390625 9.015625 79.828125 7.59375 C 83.03125 6.171875 84.09375 3.5625 84.09375 -1.421875 L 84.09375 -42.21875 C 90.03125 -25.03125 98.328125 -9.84375 108.40625 -1.65625 C 109.828125 -3.796875 112.5625 -6.875 114.578125 -8.421875 C 106.03125 -14.59375 98.6875 -25.859375 92.75 -38.78125 C 98.796875 -44.71875 106.28125 -53.015625 112.203125 -60.015625 Z M 105.09375 -65.703125 "/></g></g></g><g clip-path="url(#bbdd59a132)"><path fill="#000000" d="M 187.5 31.707031 L 255.128906 31.707031 L 255.128906 39.242188 L 187.5 39.242188 Z M 187.5 31.707031 " fill-opacity="1" fill-rule="nonzero"/></g><g clip-path="url(#21b60aeff7)"><path fill="#000000" d="M 247.605469 99.335938 L 247.605469 31.707031 L 255.136719 31.707031 L 255.136719 99.335938 Z M 247.605469 99.335938 " fill-opacity="1" fill-rule="nonzero"/></g><g clip-path="url(#f11c5b49ab)"><path fill="#000000" d="M 187.492188 333.066406 L 119.867188 333.066406 L 119.867188 325.53125 L 187.492188 325.53125 Z M 187.492188 333.066406 " fill-opacity="1" fill-rule="nonzero"/></g><g clip-path="url(#35c3babe11)"><path fill="#000000" d="M 127.390625 265.441406 L 127.390625 333.066406 L 119.855469 333.066406 L 119.855469 265.441406 Z M 127.390625 265.441406 " fill-opacity="1" fill-rule="nonzero"/></g></svg>